<?xml version="1.0" ?><svg fill="none" height="24" viewBox="0 0 24 24" width="24" xmlns="http://www.w3.org/2000/svg"><g clip-path="url(#clip0_14_12)"><path d="M6.5 9C6.5 9 8.5 8 12 8C16 8 18.5 10 18.5 10M7 13C7 13 8.5 12 12 12C15 12 17 13.5 17 13.5M7.5 17C7.5 17 9 16 11.5 16C14 16 15.5 17 15.5 17M23 12C23 18.0751 18.0751 23 12 23C5.92487 23 1 18.0751 1 12C1 5.92487 5.92487 1 12 1C18.0751 1 23 5.92487 23 12Z" stroke="black" stroke-linecap="round" stroke-linejoin="round" stroke-width="2"/></g><defs><clipPath id="clip0_14_12"><rect fill="white" height="24" width="24"/></clipPath></defs></svg>